<?xml version="1.0" encoding="UTF-8" standalone="no"?>
<!-- Created with Inkscape (http://www.inkscape.org/) -->

<svg
   width="88.425079mm"
   height="85.204666mm"
   viewBox="0 0 88.425079 85.204666"
   version="1.1"
   id="svg1"
   xml:space="preserve"
   xmlns:inkscape="http://www.inkscape.org/namespaces/inkscape"
   xmlns:sodipodi="http://sodipodi.sourceforge.net/DTD/sodipodi-0.dtd"
   xmlns="http://www.w3.org/2000/svg"
   xmlns:svg="http://www.w3.org/2000/svg"><sodipodi:namedview
     id="namedview1"
     pagecolor="#979797"
     bordercolor="#000000"
     borderopacity="0.25"
     inkscape:showpageshadow="2"
     inkscape:pageopacity="0.0"
     inkscape:pagecheckerboard="0"
     inkscape:deskcolor="#d1d1d1"
     inkscape:document-units="mm"
     inkscape:zoom="0.79305569"
     inkscape:cx="-90.157603"
     inkscape:cy="1037.1277"
     inkscape:window-width="1728"
     inkscape:window-height="968"
     inkscape:window-x="0"
     inkscape:window-y="38"
     inkscape:window-maximized="1"
     inkscape:current-layer="layer1" /><defs
     id="defs1"><linearGradient
       id="linearGradient193"
       inkscape:swatch="gradient"><stop
         style="stop-color:#393939;stop-opacity:1;"
         offset="0"
         id="stop193" /><stop
         style="stop-color:#393939;stop-opacity:0;"
         offset="1"
         id="stop194" /></linearGradient></defs><g
     inkscape:label="Layer 1"
     inkscape:groupmode="layer"
     id="layer1"
     transform="translate(-5.5340358,-199.232)"><g
       id="g268"><ellipse
         style="fill:#ffffff;fill-opacity:1;stroke:none;stroke-width:0.34669;stroke-opacity:1"
         id="path3"
         cx="91.258194"
         cy="233.1581"
         rx="2.4670212"
         ry="2.4012344" /><ellipse
         style="fill:#004cc5;fill-opacity:1;stroke:none;stroke-width:0.34669;stroke-opacity:1"
         id="path3-2"
         cx="91.492096"
         cy="241.27913"
         rx="2.4670212"
         ry="2.4012344" /><ellipse
         style="fill:#ffffff;fill-opacity:1;stroke:none;stroke-width:0.34669;stroke-opacity:1"
         id="path3-7"
         cx="91.357468"
         cy="248.45499"
         rx="2.4670212"
         ry="2.4012344" /><ellipse
         style="fill:#004cc5;fill-opacity:1;stroke:none;stroke-width:0.34669;stroke-opacity:1"
         id="path3-1"
         cx="85.082474"
         cy="241.27913"
         rx="2.4670212"
         ry="2.4012344" /><ellipse
         style="fill:#004cc5;fill-opacity:1;stroke:none;stroke-width:0.34669;stroke-opacity:1"
         id="path3-8"
         cx="78.672852"
         cy="241.27913"
         rx="2.4670212"
         ry="2.4012344" /><ellipse
         style="fill:#004cc5;fill-opacity:1;stroke:none;stroke-width:0.34669;stroke-opacity:1"
         id="path3-0"
         cx="72.263214"
         cy="241.27913"
         rx="2.4670212"
         ry="2.4012344" /><ellipse
         style="fill:#004cc5;fill-opacity:1;stroke:none;stroke-width:0.34669;stroke-opacity:1"
         id="path3-28"
         cx="65.853592"
         cy="241.27913"
         rx="2.4670212"
         ry="2.4012344" /><ellipse
         style="fill:#004cc5;fill-opacity:1;stroke:none;stroke-width:0.34669;stroke-opacity:1"
         id="path3-3"
         cx="20.502039"
         cy="241.27913"
         rx="2.4670212"
         ry="2.4012344" /><ellipse
         style="fill:#004cc5;fill-opacity:1;stroke:none;stroke-width:0.34669;stroke-opacity:1"
         id="path3-6"
         cx="14.251553"
         cy="241.27913"
         rx="2.4670212"
         ry="2.4012344" /><ellipse
         style="fill:#004cc5;fill-opacity:1;stroke:none;stroke-width:0.34669;stroke-opacity:1"
         id="path3-08"
         cx="8.0010567"
         cy="241.27913"
         rx="2.4670212"
         ry="2.4012344" /><ellipse
         style="fill:#ffffff;fill-opacity:1;stroke:none;stroke-width:0.34669;stroke-opacity:1"
         id="path3-64"
         cx="10.29574"
         cy="233.65237"
         rx="2.4670212"
         ry="2.4012344" /><ellipse
         style="fill:#ffffff;fill-opacity:1;stroke:none;stroke-width:0.34669;stroke-opacity:1"
         id="path3-84"
         cx="10.163553"
         cy="248.45261"
         rx="2.4670212"
         ry="2.4012344" /><ellipse
         style="fill:#004cc5;fill-opacity:1;stroke:none;stroke-width:0.34669;stroke-opacity:1"
         id="path3-37"
         cx="50.402172"
         cy="202.72438"
         rx="2.4670212"
         ry="2.4012344" /><ellipse
         style="fill:#004cc5;fill-opacity:1;stroke:none;stroke-width:0.34669;stroke-opacity:1"
         id="path3-9"
         cx="65.935112"
         cy="201.8569"
         rx="2.4670212"
         ry="2.4012344" /><ellipse
         style="fill:#004cc5;fill-opacity:1;stroke:none;stroke-width:0.34669;stroke-opacity:1"
         id="path3-5"
         cx="34.831211"
         cy="201.63324"
         rx="2.4670212"
         ry="2.4012344" /><ellipse
         style="fill:#004cc5;fill-opacity:1;stroke:none;stroke-width:0.34669;stroke-opacity:1"
         id="path3-85"
         cx="34.831211"
         cy="282.03543"
         rx="2.4670212"
         ry="2.4012344" /><ellipse
         style="fill:#004cc5;fill-opacity:1;stroke:none;stroke-width:0.34669;stroke-opacity:1"
         id="path3-21"
         cx="50.402172"
         cy="280.47037"
         rx="2.4670212"
         ry="2.4012344" /><ellipse
         style="fill:#004cc5;fill-opacity:1;stroke:none;stroke-width:0.34669;stroke-opacity:1"
         id="path3-58"
         cx="65.935112"
         cy="281.81073"
         rx="2.4670212"
         ry="2.4012344" /><path
         id="path3-13"
         style="fill:#004cc5;fill-opacity:1;stroke:none;stroke-width:0.497396;stroke-opacity:1"
         d="m 19.172811,270.77719 a 3.4082003,3.5777082 0 0 0 -3.40806,3.57756 3.4082003,3.5777082 0 0 0 3.40806,3.57756 3.4082003,3.5777082 0 0 0 3.408578,-3.57756 3.4082003,3.5777082 0 0 0 -3.408578,-3.57756 z m -0.02894,2.26549 a 1.3493712,1.4012319 0 0 1 1.349271,1.40095 1.3493712,1.4012319 0 0 1 -1.349271,1.40147 1.3493712,1.4012319 0 0 1 -1.349789,-1.40147 1.3493712,1.4012319 0 0 1 1.349789,-1.40095 z" /><path
         id="path3-13-6"
         style="fill:#004cc5;fill-opacity:1;stroke:none;stroke-width:0.497396;stroke-opacity:1"
         d="m 19.380827,203.42879 a 3.4082003,3.5777082 0 0 0 -3.40806,3.57756 3.4082003,3.5777082 0 0 0 3.40806,3.57756 3.4082003,3.5777082 0 0 0 3.408578,-3.57756 3.4082003,3.5777082 0 0 0 -3.408578,-3.57756 z m -0.02894,2.26549 a 1.3493712,1.4012319 0 0 1 1.349271,1.40095 1.3493712,1.4012319 0 0 1 -1.349271,1.40147 1.3493712,1.4012319 0 0 1 -1.349789,-1.40147 1.3493712,1.4012319 0 0 1 1.349789,-1.40095 z" /><path
         id="path3-13-16"
         style="fill:#004cc5;fill-opacity:1;stroke:none;stroke-width:0.497396;stroke-opacity:1"
         d="m 81.530591,203.42879 a 3.4082003,3.5777082 0 0 0 -3.40806,3.57756 3.4082003,3.5777082 0 0 0 3.40806,3.57756 3.4082003,3.5777082 0 0 0 3.40858,-3.57756 3.4082003,3.5777082 0 0 0 -3.40858,-3.57756 z m -0.0289,2.26549 a 1.3493712,1.4012319 0 0 1 1.34927,1.40095 1.3493712,1.4012319 0 0 1 -1.34927,1.40147 1.3493712,1.4012319 0 0 1 -1.34979,-1.40147 1.3493712,1.4012319 0 0 1 1.34979,-1.40095 z" /><path
         id="path3-13-4"
         style="fill:#ffffff;fill-opacity:1;stroke:none;stroke-width:0.497396;stroke-opacity:1"
         d="m 85.705351,214.63385 a 3.4082003,3.5777082 0 0 0 -3.40806,3.57756 3.4082003,3.5777082 0 0 0 3.40806,3.57756 3.4082003,3.5777082 0 0 0 3.40857,-3.57756 3.4082003,3.5777082 0 0 0 -3.40857,-3.57756 z m -0.0289,2.26549 a 1.3493712,1.4012319 0 0 1 1.34927,1.40095 1.3493712,1.4012319 0 0 1 -1.34927,1.40147 1.3493712,1.4012319 0 0 1 -1.34979,-1.40147 1.3493712,1.4012319 0 0 1 1.34979,-1.40095 z" /><path
         id="path3-13-0"
         style="fill:#004cc5;fill-opacity:1;stroke:none;stroke-width:0.497396;stroke-opacity:1"
         d="m 81.647751,270.77719 a 3.4082003,3.5777082 0 0 0 -3.40806,3.57756 3.4082003,3.5777082 0 0 0 3.40806,3.57756 3.4082003,3.5777082 0 0 0 3.40858,-3.57756 3.4082003,3.5777082 0 0 0 -3.40858,-3.57756 z m -0.0289,2.26549 a 1.3493712,1.4012319 0 0 1 1.34927,1.40095 1.3493712,1.4012319 0 0 1 -1.34927,1.40147 1.3493712,1.4012319 0 0 1 -1.34979,-1.40147 1.3493712,1.4012319 0 0 1 1.34979,-1.40095 z" /><path
         style="fill:#0042ac;fill-opacity:1;stroke:none;stroke-width:0.335;stroke-opacity:1"
         d="m 24.975169,206.56546 0.04832,2.85084"
         id="path4" /><path
         style="fill:#d40000;fill-opacity:1;stroke:none;stroke-width:0.335;stroke-opacity:1"
         d="m 27.391135,209.46462 0.193278,15.31723"
         id="path5" /><path
         style="fill:#d40000;fill-opacity:1;stroke:none;stroke-width:0.335;stroke-opacity:1"
         d="M 30.773489,221.20622 V 206.80706"
         id="path6" /><path
         style="fill:#0042ac;fill-opacity:1;stroke:none;stroke-width:0.335;stroke-opacity:1"
         d="m 25.071808,206.56546 0.04832,2.5126"
         id="path7" /><path
         style="fill:#d40000;fill-opacity:1;stroke:none;stroke-width:0.335;stroke-opacity:1"
         d="m 27.487774,209.75453 0.04832,14.06093"
         id="path8" /><path
         style="fill:#004cc5;fill-opacity:1;stroke:none;stroke-width:0.335;stroke-opacity:1"
         d="m 33.747437,206.45012 0.07164,3.36703 14.435274,-0.1791 0.0716,-3.08048 z"
         id="path12" /><path
         style="fill:#004cc5;fill-opacity:1;stroke:none;stroke-width:0.335;stroke-opacity:1"
         d="m 52.910891,206.55757 v 3.1163 l 14.292,-0.17909 v -2.75811 z"
         id="path13" /><path
         style="fill:#004cc5;fill-opacity:1;stroke:none;stroke-width:0.335;stroke-opacity:1"
         d="m 33.775626,273.78722 -0.09783,2.78815 14.185325,0.14675 -0.0489,-2.98381 z"
         id="path19" /><path
         style="fill:#004cc5;fill-opacity:1;stroke:none;stroke-width:0.335;stroke-opacity:1"
         d="m 52.901361,273.88505 0.0489,2.78815 h 14.13641 l 0.0489,-2.98381 z"
         id="path20" /><path
         style="fill:#ffffff;fill-opacity:1;stroke:none;stroke-width:0.325398;stroke-opacity:1"
         d="m 69.475931,227.48787 h 6.17509 l -0.0498,-15.12355 2.89157,-0.094 v 15.21755 h 3.7168 v -9.20129 l 2.51031,1.97409 0.0498,9.36631 h -6.53245 v 2.92236 h 8.27601 l 0.0498,2.23491 -28.24614,-0.094 0.34872,-7.70834 z"
         id="path24"
         sodipodi:nodetypes="cccccccccccccccc" /><path
         id="path3-13-4-0"
         style="fill:#ffffff;fill-opacity:1;stroke:none;stroke-width:0.497396;stroke-opacity:1"
         d="m 86.448821,267.91179 a 3.4082003,3.5777082 0 0 1 -3.40806,-3.57756 3.4082003,3.5777082 0 0 1 3.40806,-3.57756 3.4082003,3.5777082 0 0 1 3.40857,3.57756 3.4082003,3.5777082 0 0 1 -3.40857,3.57756 z m -0.0289,-2.26549 a 1.3493712,1.4012319 0 0 0 1.34927,-1.40095 1.3493712,1.4012319 0 0 0 -1.34927,-1.40147 1.3493712,1.4012319 0 0 0 -1.34979,1.40147 1.3493712,1.4012319 0 0 0 1.34979,1.40095 z" /><path
         style="fill:#ffffff;fill-opacity:1;stroke:none;stroke-width:0.325398;stroke-opacity:1"
         d="m 70.219401,255.05777 h 6.17509 l -0.0498,15.12355 2.89157,0.094 v -15.21755 h 3.7168 v 9.20129 l 2.51031,-1.97409 0.0498,-9.36631 h -6.53245 v -2.92236 h 8.27601 l 0.0498,-2.23491 -28.24614,0.094 0.34871,7.70834 z"
         id="path24-9"
         sodipodi:nodetypes="cccccccccccccccc" /><ellipse
         style="fill:#ffd700;fill-opacity:1;stroke:none;stroke-width:0.36873;stroke-opacity:1"
         id="path25-7"
         cx="49.450634"
         cy="241.26227"
         rx="11.82169"
         ry="12.602077" /><path
         id="path25-4"
         style="fill:#bf0a30;fill-opacity:1;stroke:none;stroke-width:0.371274;stroke-opacity:1"
         d="m 50.4325,215.27955 a 25,26 0 0 0 -25.00003,25.99996 25,26 0 0 0 25.00003,25.99996 25,26 0 0 0 21.31033,-12.47521 l -12.22562,-7.01352 a 11.82169,12.276368 0 0 1 -9.97665,5.74228 11.82169,12.276368 0 0 1 -11.8215,-12.27625 11.82169,12.276368 0 0 1 11.8215,-12.27625 11.82169,12.276368 0 0 1 9.94978,5.69009 l 12.11554,-7.17682 A 25,26 0 0 0 50.4325,215.27955 Z" /><path
         style="fill:#004cc5;fill-opacity:1;stroke:none;stroke-width:0.335;stroke-opacity:1"
         d="m 33.838277,217.59502 c 0,0 2.687749,-1.75802 5.136631,-2.90191 2.981166,-1.39252 8.263323,-2.31285 8.263323,-2.31285 h -13.28547 z"
         id="path26"
         sodipodi:nodetypes="csccc" /><path
         style="fill:#004cc5;fill-opacity:1;stroke:none;stroke-width:0.335;stroke-opacity:1"
         d="m 66.453561,217.73218 c 0,0 -2.68775,-1.75802 -5.13663,-2.90191 -2.98118,-1.39252 -8.26333,-2.31285 -8.26333,-2.31285 h 13.28547 z"
         id="path26-1"
         sodipodi:nodetypes="csccc" /><path
         style="fill:#004cc5;fill-opacity:1;stroke:none;stroke-width:0.335;stroke-opacity:1"
         d="m 66.698111,264.80382 c 0,0 -2.68775,1.75802 -5.13663,2.90191 -2.98118,1.39252 -8.26332,2.31285 -8.26332,2.31285 h 13.28546 z"
         id="path26-1-3"
         sodipodi:nodetypes="csccc" /><path
         style="fill:#004cc5;fill-opacity:1;stroke:none;stroke-width:0.335;stroke-opacity:1"
         d="m 34.050811,264.66044 c 0,0 2.68775,1.75802 5.13662,2.90191 2.98118,1.39252 8.26333,2.31285 8.26333,2.31285 h -13.28546 z"
         id="path26-1-3-1"
         sodipodi:nodetypes="csccc" /><g
         id="g27"
         style="fill:#ffffff;fill-opacity:1"
         transform="translate(-38.17821,62.67046)"><path
           id="path3-13-5-3"
           style="fill:#ffffff;fill-opacity:1;stroke:none;stroke-width:0.497396;stroke-opacity:1"
           d="m 53.825769,195.83645 a 3.4082003,3.5777082 0 0 0 -3.40806,3.57756 3.4082003,3.5777082 0 0 0 3.40806,3.57756 3.4082003,3.5777082 0 0 0 3.408578,-3.57756 3.4082003,3.5777082 0 0 0 -3.408578,-3.57756 z m -0.02894,2.26549 a 1.3493712,1.4012319 0 0 1 1.349271,1.40095 1.3493712,1.4012319 0 0 1 -1.349271,1.40147 1.3493712,1.4012319 0 0 1 -1.349789,-1.40147 1.3493712,1.4012319 0 0 1 1.349789,-1.40095 z" /><path
           style="fill:#ffffff;fill-opacity:1;stroke:none;stroke-width:0.335;stroke-opacity:1"
           d="m 53.533025,183.5354 h 8.41472 c 0,0 0.213569,2.19252 0.601459,3.77967 0.28838,1.17999 1.539121,4.45052 1.539121,4.45052 v 15.04928 h -3.5615 v -14.57286 h -3.71911 v 6.26178 l -2.54267,-2.08726 V 189.206 h 5.35098 v -2.65652 h -6.07203 z"
           id="path27-6"
           sodipodi:nodetypes="ccscccccccccccc" /></g><g
         id="g28"
         style="fill:#ffffff;fill-opacity:1"
         transform="translate(-38.17821,62.67046)"><path
           id="path3-13-5"
           style="opacity:1;fill:#ffffff;fill-opacity:1;stroke:none;stroke-width:0.497396;stroke-opacity:1"
           d="m 53.57866,153.88219 a 3.4082003,3.5777082 0 0 0 -3.40806,3.57756 3.4082003,3.5777082 0 0 0 3.40806,3.57756 3.4082003,3.5777082 0 0 0 3.408578,-3.57756 3.4082003,3.5777082 0 0 0 -3.408578,-3.57756 z m -0.02894,2.26549 a 1.3493712,1.4012319 0 0 1 1.349271,1.40095 1.3493712,1.4012319 0 0 1 -1.349271,1.40147 1.3493712,1.4012319 0 0 1 -1.349789,-1.40147 1.3493712,1.4012319 0 0 1 1.349789,-1.40095 z" /><path
           style="fill:#ffffff;fill-opacity:1;stroke:none;stroke-width:0.335;stroke-opacity:1"
           d="m 53.400298,173.3829 h 8.41472 c 0,0 0.213569,-2.19252 0.601459,-3.77967 0.28838,-1.17999 1.539121,-4.45052 1.539121,-4.45052 v -15.04928 h -3.5615 v 14.57286 h -3.71911 v -6.26178 l -2.54267,2.08726 v 7.21053 h 5.35098 v 2.65652 h -6.07203 z"
           id="path27-6-1"
           sodipodi:nodetypes="ccscccccccccccc" /></g><path
         style="fill:#004cc5;fill-opacity:1;stroke:none;stroke-width:0.335;stroke-opacity:1"
         d="m 28.302436,209.16897 v 15.19881 c 0,0 0.951766,-1.46204 1.556701,-2.06124 0.551883,-0.54665 1.682949,-1.37437 1.682949,-1.37437 v -14.75068 h -5.862929 v 2.9128 z"
         id="path28"
         sodipodi:nodetypes="ccsccccc" /><path
         style="fill:#004cc5;fill-opacity:1;stroke:none;stroke-width:0.335;stroke-opacity:1"
         d="m 72.272201,208.71962 v 15.19881 c 0,0 -0.95176,-1.46204 -1.5567,-2.06124 -0.55188,-0.54665 -1.68295,-1.37437 -1.68295,-1.37437 v -14.75068 h 5.86293 v 2.9128 z"
         id="path28-5"
         sodipodi:nodetypes="ccsccccc" /><path
         style="fill:#004cc5;fill-opacity:1;stroke:none;stroke-width:0.335;stroke-opacity:1"
         d="m 73.098131,273.70513 v -15.19881 c 0,0 -0.95176,1.46204 -1.5567,2.06124 -0.55188,0.54665 -1.68295,1.37437 -1.68295,1.37437 v 14.75068 h 5.86293 v -2.9128 z"
         id="path28-4"
         sodipodi:nodetypes="ccsccccc" /><path
         style="fill:#004cc5;fill-opacity:1;stroke:none;stroke-width:0.335;stroke-opacity:1"
         d="m 28.466743,274.41058 v -15.19881 c 0,0 0.95176,1.46204 1.5567,2.06124 0.55188,0.54665 1.68295,1.37437 1.68295,1.37437 v 14.75068 h -5.86293 v -2.9128 z"
         id="path28-4-1"
         sodipodi:nodetypes="ccsccccc" /></g></g></svg>
